<svg viewBox="0 0 54 14" fill="none" xmlns="http://www.w3.org/2000/svg"><path d="M10.335.368c.222 0 .402.076.542.228.152.14.228.32.228.542a.74.74 0 0 1-.228.543.705.705 0 0 1-.542.227H6.572v10.5a.76.76 0 0 1-.227.56c-.14.14-.32.21-.542.21a.774.774 0 0 1-.543-.21.76.76 0 0 1-.228-.56v-10.5H1.27a.74.74 0 0 1-.542-.227.74.74 0 0 1-.228-.543C.5.917.576.736.728.596A.74.74 0 0 1 1.27.368h9.065Zm6.573 0c.886 0 1.72.17 2.502.508a6.482 6.482 0 0 1 2.065 1.382 6.343 6.343 0 0 1 1.4 2.065 6.24 6.24 0 0 1 .508 2.503 6.259 6.259 0 0 1-.665 2.87 6.498 6.498 0 0 1-1.803 2.205l-.035.035a7.18 7.18 0 0 1-1.837.997 6.401 6.401 0 0 1-2.135.35 6.23 6.23 0 0 1-2.503-.507 6.751 6.751 0 0 1-2.065-1.383 6.537 6.537 0 0 1-1.382-2.047 6.276 6.276 0 0 1-.508-2.52c0-.98.198-1.884.595-2.713a6.46 6.46 0 0 1 1.628-2.152l.07-.07c.011 0 .029-.012.052-.035A6.334 6.334 0 0 1 14.685.77a6.16 6.16 0 0 1 2.223-.403Zm0 11.375a4.91 4.91 0 0 0 1.26-.157 5.575 5.575 0 0 0 1.155-.473L13.18 3.641a4.915 4.915 0 0 0-.875 1.47 4.664 4.664 0 0 0-.315 1.715c0 .677.128 1.312.385 1.907a5.17 5.17 0 0 0 1.05 1.575c.455.444.98.794 1.575 1.05.595.257 1.23.385 1.908.385Zm3.622-1.592c.408-.443.723-.945.945-1.505.233-.572.35-1.178.35-1.82a4.814 4.814 0 0 0-1.453-3.465 4.813 4.813 0 0 0-3.464-1.453c-.467 0-.916.065-1.348.193a4.46 4.46 0 0 0-1.207.525l6.177 7.525Zm9.821-2.521a.763.763 0 0 1-.595-.28l-4.497-5.774a.714.714 0 0 1-.158-.543.722.722 0 0 1 .28-.507.658.658 0 0 1 .543-.14.72.72 0 0 1 .507.28l3.92 5.005L34.184.753a.709.709 0 0 1 .49-.28.74.74 0 0 1 .56.158.721.721 0 0 1 .28.507.713.713 0 0 1-.158.543l-4.41 5.67a.73.73 0 0 1-.595.28Zm4.918 5.636a1.566 1.566 0 0 1-.56-.105 3.847 3.847 0 0 1-.42-.228 2.376 2.376 0 0 1-.42-.42L30.35 7.981l-3.832 4.935a.721.721 0 0 1-.508.28.713.713 0 0 1-.543-.158.709.709 0 0 1-.28-.49.741.741 0 0 1 .158-.56l4.41-5.67a.682.682 0 0 1 .578-.28.75.75 0 0 1 .612.28l4.095 5.25c.058.082.11.135.158.158l.105.052c.198 0 .361.07.49.21.14.129.215.292.227.49a.657.657 0 0 1-.175.543.744.744 0 0 1-.525.245h-.052Zm4.465 0a.761.761 0 0 1-.56-.228.76.76 0 0 1-.227-.56V1.103c0-.21.076-.39.227-.542a.761.761 0 0 1 .56-.228c.21 0 .391.076.543.228a.74.74 0 0 1 .227.542v11.375a.76.76 0 0 1-.227.56.74.74 0 0 1-.543.228Zm13.204-.036a.685.685 0 0 1-.595-.297l-7.298-9.59v9.135a.74.74 0 0 1-.227.543.712.712 0 0 1-.525.21.75.75 0 0 1-.753-.753V1.121c0-.163.047-.31.14-.438a.696.696 0 0 1 .385-.262.678.678 0 0 1 .455-.018.79.79 0 0 1 .385.263l7.28 9.607V1.121c0-.198.07-.373.21-.525a.74.74 0 0 1 .543-.228c.21 0 .385.076.525.228a.721.721 0 0 1 .227.525v11.357a.72.72 0 0 1-.14.438.799.799 0 0 1-.367.28 1.469 1.469 0 0 1-.245.035Z" fill="#1F2041"/></svg>